HIERARCHY
ROOT Hips
{
	OFFSET 0.000000 0.000000 0.000000
	CHANNELS 6 Xposition Yposition Zposition Zrotation Yrotation Xrotation 
	JOINT LHipJoint
	{
		OFFSET 0.000000 0.000000 0.000000
		CHANNELS 3 Zrotation Yrotation Xrotation
		JOINT LeftUpLeg
		{
			OFFSET 1.363060 -1.794630 0.839290
			CHANNELS 3 Zrotation Yrotation Xrotation
			JOINT LeftLeg
			{
				OFFSET 2.448110 -6.726130 0.000000
				CHANNELS 3 Zrotation Yrotation Xrotation
				JOINT LeftFoot
				{
					OFFSET 2.562200 -7.039590 0.000000
					CHANNELS 3 Zrotation Yrotation Xrotation
					JOINT LeftToeBase
					{
						OFFSET 0.157640 -0.433110 2.322550
						CHANNELS 3 Zrotation Yrotation Xrotation
						End Site
						{
							OFFSET 0.000000 0.000000 0.000000
						}
					}
				}
			}
		}
	}
	JOINT RHipJoint
	{
		OFFSET 0.000000 0.000000 0.000000
		CHANNELS 3 Zrotation Yrotation Xrotation
		JOINT RightUpLeg
		{
			OFFSET -1.305520 -1.794630 0.839290
			CHANNELS 3 Zrotation Yrotation Xrotation
			JOINT RightLeg
			{
				OFFSET -2.542530 -6.985550 0.000000
				CHANNELS 3 Zrotation Yrotation Xrotation
				JOINT RightFoot
				{
					OFFSET -2.568260 -7.056230 0.000000
					CHANNELS 3 Zrotation Yrotation Xrotation
					JOINT RightToeBase
					{
						OFFSET -0.164730 -0.452590 2.363150
						CHANNELS 3 Zrotation Yrotation Xrotation
						End Site
						{
							OFFSET 0.000000 0.000000 0.000000
						}
					}
				}
			}
		}
	}
	JOINT LowerBack
	{
		OFFSET 0.000000 0.000000 0.000000
		CHANNELS 3 Zrotation Yrotation Xrotation
		JOINT Spine
		{
			OFFSET 0.028270 2.035590 -0.193380
			CHANNELS 3 Zrotation Yrotation Xrotation
			JOINT Spine1
			{
				OFFSET 0.056720 2.048850 -0.042750
				CHANNELS 3 Zrotation Yrotation Xrotation
				JOINT Neck
				{
					OFFSET 0.000000 0.000000 0.000000
					CHANNELS 3 Zrotation Yrotation Xrotation
					JOINT Neck1
					{
						OFFSET -0.054170 1.746240 0.172020
						CHANNELS 3 Zrotation Yrotation Xrotation
						JOINT Head
						{
							OFFSET 0.104070 1.761360 -0.123970
							CHANNELS 3 Zrotation Yrotation Xrotation
							End Site
							{
								OFFSET 0.000000 0.000000 0.000000
							}
						}
					}
				}
				JOINT LeftShoulder
				{
					OFFSET 0.000000 0.000000 0.000000
					CHANNELS 3 Zrotation Yrotation Xrotation
					JOINT LeftArm
					{
						OFFSET 3.362410 1.200890 -0.311210
						CHANNELS 3 Zrotation Yrotation Xrotation
						JOINT LeftForeArm
						{
							OFFSET 4.983000 -0.000000 -0.000000
							CHANNELS 3 Zrotation Yrotation Xrotation
							JOINT LeftHand
							{
								OFFSET 3.483560 -0.000000 -0.000000
								CHANNELS 3 Zrotation Yrotation Xrotation
								JOINT LeftFingerBase
								{
									OFFSET 0.000000 0.000000 0.000000
									CHANNELS 3 Zrotation Yrotation Xrotation
									JOINT LeftHandIndex1
									{
										OFFSET 0.715260 -0.000000 -0.000000
										CHANNELS 3 Zrotation Yrotation Xrotation
										End Site
										{
											OFFSET 0.000000 0.000000 0.000000
										}
									}
								}
								JOINT LThumb
								{
									OFFSET 0.000000 0.000000 0.000000
									CHANNELS 3 Zrotation Yrotation Xrotation
									End Site
									{
										OFFSET 0.000000 0.000000 0.000000
									}
								}
							}
						}
					}
				}
				JOINT RightShoulder
				{
					OFFSET 0.000000 0.000000 0.000000
					CHANNELS 3 Zrotation Yrotation Xrotation
					JOINT RightArm
					{
						OFFSET -3.136600 1.374050 -0.404650
						CHANNELS 3 Zrotation Yrotation Xrotation
						JOINT RightForeArm
						{
							OFFSET -5.241900 -0.000000 -0.000000
							CHANNELS 3 Zrotation Yrotation Xrotation
							JOINT RightHand
							{
								OFFSET -3.444170 -0.000000 -0.000000
								CHANNELS 3 Zrotation Yrotation Xrotation
								JOINT RightFingerBase
								{
									OFFSET 0.000000 0.000000 0.000000
									CHANNELS 3 Zrotation Yrotation Xrotation
									JOINT RightHandIndex1
									{
										OFFSET -0.622530 -0.000000 -0.000000
										CHANNELS 3 Zrotation Yrotation Xrotation
										End Site
										{
											OFFSET 0.000000 0.000000 0.000000
										}
									}
								}
								JOINT RThumb
								{
									OFFSET 0.000000 0.000000 0.000000
									CHANNELS 3 Zrotation Yrotation Xrotation
									End Site
									{
										OFFSET 0.000000 0.000000 0.000000
									}
								}
							}
						}
					}
				}
			}
		}
	}
}
MOTION
Frames: 10
Frame Time: 0.008333
9.332386 18.091358 -43.633772 -4.120329 -67.136833 6.204878 -2.343014 1.237082 -0.577400 -6.138153 -32.211231 -13.414896 -1.821753 8.617593 22.722680 6.191376 -10.799445 4.321784 6.175200 -14.596000 -45.680900 -3.643263 -3.459808 1.619849 28.438430 13.917405 3.629707 2.818258 -5.929999 20.640635 5.176590 -18.235509 -12.029581 -0.114200 2.178600 -5.999600 8.924815 9.112643 5.195679 0.933615 12.765312 1.721496 -9.349252 5.767422 -8.538687 5.629336 11.882788 -18.603034 -3.895849 14.958838 -5.082791 -4.759800 6.161600 0.972500 -0.149123 -10.857259 1.980854 -57.742552 41.968428 -10.112214 32.111400 -32.301601 -10.127253 1.728785 1.156195 0.443848 8.628810 -32.431139 -3.867900 -7.125000 0.000000 0.000000 -14.061200 -3.105600 15.259200 -0.695963 11.303803 3.342606 48.103931 32.539489 46.831319 -40.900127 40.709172 -17.698831 0.938091 0.648290 8.459052 -0.976068 -50.370079 1.395600 7.125000 0.000000 0.000000 -17.489100 12.519700 -166.036000 
9.372777 18.122392 -43.655448 -3.744214 -66.157772 5.994247 -2.345998 1.240562 -0.638801 -5.811772 -33.745123 -13.208453 -1.838524 8.457181 22.430208 6.390982 -11.763158 5.388831 2.947200 -10.609100 -30.972700 -3.570252 -3.452017 1.650632 28.302087 13.811925 3.357541 2.863812 -5.871406 20.394796 5.405854 -18.831416 -11.916308 -0.067800 1.680000 -4.622100 8.968071 9.087401 5.093569 1.324568 12.708822 1.754617 -9.241861 5.748123 -8.496451 5.461063 11.759562 -18.465889 -3.808638 14.794948 -5.090751 -4.727400 6.093000 0.917400 -0.203270 -10.843001 1.937984 -59.704696 42.680403 -10.102658 31.881145 -31.934017 -10.108357 1.841080 1.165871 0.689380 8.004404 -34.519580 -3.647400 -7.125000 0.000000 0.000000 -14.581300 -5.059400 16.327800 -0.707242 11.266878 3.359497 47.991484 32.353050 48.114592 -42.161962 41.511431 -18.613296 0.891303 0.649651 8.170179 -0.742622 -49.519471 1.167200 7.125000 0.000000 0.000000 -17.654400 13.382800 -166.227000 
9.417077 18.117536 -43.679493 -3.449890 -65.116840 6.212214 -2.296317 1.080975 -0.714504 -5.813865 -32.757109 -14.036477 -1.952447 8.586820 22.267080 4.374813 -5.606738 2.643776 6.185500 -14.605700 -45.721700 -3.485597 -3.361136 1.632756 28.190146 13.839716 2.746849 2.895262 -5.863784 20.248766 5.378649 -18.703821 -11.675175 -0.008900 0.609100 -1.673800 9.169887 9.077475 4.559647 1.499574 12.624296 1.771137 -9.194586 5.731413 -8.148382 5.319993 11.693891 -18.574487 -3.648010 14.705301 -5.106101 -4.656500 6.052400 0.900500 -0.243979 -10.825676 1.935794 -61.631986 43.111942 -10.301435 31.770993 -31.644471 -10.087200 1.896471 1.180954 0.951714 8.151426 -35.334477 -3.781900 -7.125000 0.000000 0.000000 -14.585800 -5.894500 16.526600 -0.713920 11.227710 3.372228 47.722482 31.980090 49.199309 -43.872271 42.546843 -19.908094 0.833773 0.646737 7.889229 -0.797331 -49.229230 1.164400 7.125000 0.000000 0.000000 -17.670800 13.670100 -166.325900 
9.468247 18.124524 -43.713606 -3.009396 -63.786964 5.802984 -2.255549 1.029263 -0.746014 -6.033353 -32.279078 -14.416725 -2.062714 8.603541 22.119473 2.973431 -2.200468 1.544801 7.060300 -15.382400 -49.101900 -3.416234 -3.320585 1.650309 28.185291 13.745708 2.608447 2.922634 -5.843365 20.170120 5.537754 -19.212393 -12.073753 -0.000000 -0.019000 0.052300 9.329205 8.894937 4.652744 1.677727 12.385036 1.913880 -9.219887 5.621004 -8.171034 5.192629 11.725620 -18.674940 -3.282162 14.728261 -5.164146 -4.519900 6.066000 0.851900 -0.276670 -10.793529 1.937166 -63.537701 43.595964 -10.369266 31.794625 -31.437610 -10.076643 1.907912 1.202943 1.160457 8.927834 -35.112547 -4.230100 -7.125000 0.000000 0.000000 -14.168600 -5.826400 16.008900 -0.714421 11.183952 3.378250 47.808559 31.799437 50.275325 -45.263966 43.303301 -20.915612 0.789947 0.628041 7.937643 -1.141122 -47.185526 1.354200 7.125000 0.000000 0.000000 -17.664700 15.570000 -167.087800 
9.523089 18.131394 -43.754708 -2.613912 -62.343755 5.526005 -2.177960 0.928844 -0.782319 -6.234146 -31.559421 -14.973950 -2.163905 8.589868 21.937563 2.133755 -0.325409 1.534362 6.739000 -15.108100 -47.880200 -3.339269 -3.258946 1.649583 28.218842 13.804206 2.389356 2.950358 -5.863410 20.166920 5.805851 -20.088217 -12.796414 -0.011200 -0.683100 1.877100 9.184880 8.765528 4.768514 2.045878 12.200159 1.871538 -9.064465 5.544313 -8.299168 4.994554 11.617547 -18.525432 -3.043318 14.578259 -5.171819 -4.434100 6.009700 0.774500 -0.329250 -10.727219 1.979157 -65.429546 43.819213 -10.495910 31.587854 -31.073984 -9.978025 1.920079 1.235826 1.513223 9.919319 -35.434059 -4.871500 -7.125000 0.000000 0.000000 -13.679400 -6.342300 15.533800 -0.717075 11.117586 3.397691 47.655344 31.260500 51.152137 -46.649018 44.082574 -22.022611 0.722758 0.647156 8.142858 0.847420 -46.836410 -0.173500 7.125000 0.000000 0.000000 -18.658200 16.269800 -166.577600 
9.572364 18.142528 -43.778635 -2.581468 -61.045798 5.434213 -2.112032 0.879133 -0.794451 -6.396805 -31.010212 -15.278971 -2.211257 8.592891 21.886298 1.714721 0.582084 1.779210 5.565600 -13.993700 -43.212300 -3.289383 -3.232065 1.659555 28.355391 13.713796 2.340244 2.989931 -5.828857 20.056033 5.947092 -20.597433 -13.348780 -0.043700 -1.348900 3.709300 9.419414 8.694886 4.979491 2.401512 12.135467 1.878615 -9.126549 5.500914 -8.353399 4.806859 11.460384 -18.510470 -2.868479 14.371339 -5.165138 -4.370400 5.920200 0.724000 -0.378860 -10.649700 2.054380 -67.193718 43.754762 -10.997606 31.033579 -30.504061 -9.785198 1.963028 1.265355 2.209909 10.711100 -36.981632 -5.541000 -7.125000 0.000000 0.000000 -13.427100 -8.039600 15.577900 -0.725897 11.036163 3.413851 47.460710 30.507848 52.054405 -48.092798 44.882068 -23.288271 0.687647 0.639230 7.871298 -0.157977 -49.718005 0.570600 7.125000 0.000000 0.000000 -17.984800 13.375500 -165.937800 
9.620573 18.156742 -43.802917 -2.553166 -59.739823 5.392315 -2.027420 0.811588 -0.811354 -6.526043 -30.309985 -15.700107 -2.239507 8.646305 21.927121 1.360765 1.371644 1.725745 4.760500 -13.108900 -39.777600 -3.239590 -3.186452 1.658937 28.448154 13.461000 2.148790 3.022992 -5.801825 19.957629 6.067736 -21.029106 -13.798450 -0.091400 -1.949900 5.367400 9.720024 8.606783 5.033384 2.625472 12.036306 1.944758 -9.212828 5.442442 -8.268331 5.204220 11.292287 -18.630512 -3.111499 14.146432 -5.055916 -4.509000 5.806900 0.796900 -0.439200 -10.522893 2.135091 -68.754122 43.426449 -11.586363 30.394353 -29.838542 -9.442069 2.009816 1.259063 3.026393 10.749869 -36.815704 -5.531900 -7.125000 0.000000 0.000000 -13.407500 -7.907000 15.527400 -0.737289 11.011966 3.418993 47.603651 29.946916 52.664639 -49.398526 45.531664 -24.415677 0.654565 0.628402 8.399524 -0.358087 -51.971708 0.717700 7.125000 0.000000 0.000000 -17.782900 11.219500 -165.270700 
9.674704 18.160414 -43.837860 -2.433432 -58.260651 5.147945 -1.897275 0.717556 -0.828734 -6.806896 -28.914864 -16.338938 -2.250589 8.750906 22.103994 1.452058 1.179637 1.930096 4.059600 -12.239300 -36.583900 -3.196685 -3.136067 1.644441 28.578323 13.072529 2.050628 3.053234 -5.769283 19.873682 6.237399 -21.630922 -14.374247 -0.186500 -2.781400 7.670700 9.858776 8.541840 5.434085 2.866934 12.014178 1.718448 -9.294792 5.396041 -8.488184 5.661769 11.044707 -18.188600 -3.318327 13.766922 -5.061355 -4.680000 5.631200 0.734200 -0.500365 -10.368323 2.168182 -69.849929 43.268142 -11.312389 29.842027 -29.082138 -8.874085 1.999691 1.212926 3.928629 10.485927 -32.678873 -4.872000 -7.125000 0.000000 0.000000 -13.182700 -3.800600 14.403600 -0.738650 10.925987 3.514375 47.297127 27.975091 53.183583 -52.840999 47.101622 -27.326566 0.546126 0.614853 8.768909 -0.033906 -53.525679 0.381400 7.125000 0.000000 0.000000 -17.879200 9.846100 -164.654300 
9.725401 18.155913 -43.863682 -2.248690 -56.814816 5.038911 -1.774961 0.581362 -0.897348 -7.303592 -27.180615 -17.160134 -2.290608 8.912376 22.336012 0.678418 2.889286 1.726147 4.341200 -12.601100 -37.893200 -3.166802 -3.066705 1.585619 28.657560 12.885945 1.840239 3.082345 -5.773609 19.846207 6.453548 -22.383260 -15.065530 -0.313800 -3.601100 9.957100 10.380131 8.706950 5.833360 2.554422 12.344529 1.105627 -9.762592 5.474731 -8.731065 6.151133 10.601905 -17.205701 -3.296407 13.039931 -5.316124 -4.831300 5.290600 0.462700 -0.495079 -10.319122 2.161212 -69.980123 43.275877 -10.323271 29.236138 -28.512096 -8.629753 2.052059 1.215277 4.455109 10.310733 -33.566856 -4.861200 -7.125000 0.000000 0.000000 -13.364900 -4.664500 14.802000 -0.699532 10.821918 3.603336 48.010172 26.053083 53.261973 -54.370887 47.763520 -28.622049 0.502182 0.590857 9.608701 -0.503554 -53.048742 0.719000 7.125000 0.000000 0.000000 -17.736900 10.247700 -164.941900 
9.777163 18.152715 -43.889267 -2.020886 -55.314877 4.859937 -1.685491 0.505944 -0.933632 -7.790017 -26.235537 -17.645410 -2.304579 9.054789 22.583219 -0.271959 4.936064 1.342699 3.798700 -11.887600 -35.335300 -3.112845 -3.019587 1.578071 28.652599 12.606468 1.483774 3.087084 -5.826215 19.939656 6.645434 -23.051248 -15.703974 -0.405000 -4.085500 11.317200 10.691405 8.527956 5.901464 2.703199 12.126929 1.046218 -9.897639 5.359898 -8.738504 5.960445 10.520012 -16.728822 -3.136485 12.884473 -5.656644 -4.785800 5.216700 0.240300 -0.542681 -10.283490 2.271240 -71.797862 42.990831 -11.370015 28.706558 -27.936980 -8.319401 2.092709 1.187171 5.145285 9.908783 -32.850475 -4.527000 -7.125000 0.000000 0.000000 -13.543900 -3.898200 14.842500 -0.672889 10.709275 3.589413 48.500604 25.504614 54.067484 -54.906906 47.965755 -29.059761 0.500086 0.564779 10.346733 -1.768662 -52.110323 1.713000 7.125000 0.000000 0.000000 -17.267800 10.926800 -165.632900 
